#tb 0: 71/500
0,          1,          1,        1,   921600, 0xe6309638
0,          2,          2,        1,   921600, 0xa99a7665
0,          3,          3,        1,   921600, 0x172ccfbb
0,          4,          4,        1,   921600, 0xcf676571
0,          5,          5,        1,   921600, 0x6a5077f2
0,          6,          6,        1,   921600, 0x6a5077f2
0,          7,          7,        1,   921600, 0x6a5077f2
0,          8,          8,        1,   921600, 0x6a5077f2
0,          9,          9,        1,   921600, 0x6a5077f2
0,         10,         10,        1,   921600, 0x6a5077f2
0,         11,         11,        1,   921600, 0xb83db404
0,         12,         12,        1,   921600, 0x997ceb90
0,         13,         13,        1,   921600, 0xd707157c
